<?xml version="1.0" standalone="no"?>
<!DOCTYPE svg PUBLIC "-//W3C//DTD SVG 20010904//EN"
 "http://www.w3.org/TR/2001/REC-SVG-20010904/DTD/svg10.dtd">
<svg version="1.0" xmlns="http://www.w3.org/2000/svg"
 width="439.000000pt" height="481.000000pt" viewBox="0 0 439.000000 481.000000"
 preserveAspectRatio="xMidYMid meet">
<metadata>
Created by potrace 1.13, written by Peter Selinger 2001-2015
</metadata>
<g transform="translate(0.000000,481.000000) scale(0.100000,-0.100000)"
fill="#000000" stroke="none">
<path d="M800 4515 l-275 -275 -227 227 -228 228 0 -818 0 -817 2125 0 2125 0
0 822 c0 452 -2 819 -5 817 -2 -2 -202 -201 -443 -441 l-439 -438 -134 0 -134
0 275 275 275 275 -210 210 -210 210 -278 -277 -277 -278 -278 278 -277 277
-485 -485 -485 -485 -135 0 -135 0 274 274 274 274 -204 211 c-112 116 -206
211 -209 211 -3 0 -129 -124 -280 -275z m-300 -1020 l0 -35 -95 0 -95 0 0 -30
0 -30 69 0 c38 0 81 -4 95 -10 25 -9 26 -12 26 -105 l0 -95 -140 0 -140 0 0
35 0 35 95 0 95 0 0 35 0 35 -79 0 c-115 0 -111 -4 -111 106 l0 94 140 0 140
0 0 -35z m378 23 c8 -8 12 -60 12 -170 l0 -158 -45 0 -45 0 0 45 0 45 -50 0
-50 0 0 -45 0 -45 -45 0 -45 0 0 170 0 170 128 0 c86 0 132 -4 140 -12z m402
-23 l0 -35 -95 0 -95 0 0 -100 0 -100 95 0 95 0 0 -35 0 -35 -128 0 c-86 0
-132 4 -140 12 -8 8 -12 60 -12 170 l0 158 140 0 140 0 0 -35z m364 29 c13 -5
16 -25 16 -110 0 -97 -1 -104 -20 -104 -19 0 -19 -2 5 -56 14 -31 25 -58 25
-60 0 -2 -20 -4 -44 -4 l-45 0 -27 60 c-24 53 -30 60 -55 60 -29 0 -29 -1 -29
-60 l0 -60 -45 0 -45 0 0 170 0 170 124 0 c68 0 131 -3 140 -6z m400 -10 c13
-13 16 -43 16 -170 l0 -154 -50 0 -50 0 0 45 0 45 -50 0 -50 0 0 -45 0 -45
-45 0 -45 0 0 170 0 170 129 0 c104 0 133 -3 145 -16z m596 -3 c5 -11 10 -86
10 -170 l0 -151 -50 0 -50 0 0 135 0 135 -50 0 -50 0 0 -135 0 -135 -45 0 -45
0 0 135 0 135 -50 0 -50 0 0 -135 0 -135 -45 0 -45 0 0 170 0 170 230 0 c216
0 230 -1 240 -19z m408 -13 l-3 -33 -97 -3 -98 -3 0 -29 0 -29 98 -3 97 -3 3
-32 3 -33 -100 0 -101 0 0 -35 0 -34 98 -3 97 -3 3 -32 3 -33 -126 0 c-69 0
-135 5 -146 10 -18 10 -19 23 -19 170 l0 160 146 0 145 0 -3 -32z m362 13 c5
-11 10 -86 10 -170 l0 -151 -45 0 -45 0 0 136 0 135 -52 -3 -53 -3 -3 -132 -3
-133 -44 0 -45 0 0 170 0 170 135 0 c123 0 135 -2 145 -19z m380 -16 l0 -35
-50 0 -50 0 0 -135 0 -135 -45 0 -45 0 0 135 0 135 -50 0 -50 0 0 35 0 35 145
0 145 0 0 -35z m370 16 c5 -11 10 -80 10 -155 0 -109 -3 -138 -16 -150 -12
-13 -39 -16 -133 -16 -78 0 -121 4 -129 12 -8 8 -12 58 -12 158 0 100 4 150
12 158 8 8 53 12 135 12 111 0 123 -2 133 -19z"/>
<path d="M700 3405 l0 -55 50 0 50 0 0 55 0 55 -50 0 -50 0 0 -55z"/>
<path d="M1470 3420 l0 -40 50 0 50 0 0 40 0 40 -50 0 -50 0 0 -40z"/>
<path d="M1860 3405 l0 -55 50 0 50 0 0 55 0 55 -50 0 -50 0 0 -55z"/>
<path d="M3970 3360 l0 -100 55 0 55 0 0 100 0 100 -55 0 -55 0 0 -100z"/>
<path d="M70 2435 l0 -455 160 0 160 0 0 185 0 185 49 0 c47 0 49 -1 64 -37 8
-21 47 -104 86 -185 l70 -148 156 0 c85 0 155 3 155 7 0 3 -47 103 -105 221
-58 118 -105 220 -105 227 0 7 47 110 105 229 58 120 105 219 105 222 0 2 -71
4 -157 4 l-158 0 -49 -108 c-26 -59 -65 -141 -85 -182 l-37 -75 -47 -3 -47 -3
0 185 0 186 -160 0 -160 0 0 -455z"/>
<path d="M1060 2435 l0 -455 165 0 165 0 0 455 0 455 -165 0 -165 0 0 -455z"/>
<path d="M1510 2435 l0 -455 155 0 155 0 0 365 0 365 120 0 120 0 0 -365 0
-365 155 0 155 0 0 394 c0 216 -3 408 -6 425 -4 17 -19 45 -34 61 l-28 30
-396 0 -396 0 0 -455z"/>
<path d="M2500 2485 c0 -455 1 -464 64 -490 29 -12 104 -15 416 -15 l380 0 0
275 0 275 -155 0 -155 0 0 -185 0 -185 -115 0 -115 0 0 280 0 280 270 0 270 0
0 85 0 85 -430 0 -430 0 0 -405z"/>
<path d="M3480 2681 c0 -115 3 -223 6 -240 4 -17 19 -45 34 -61 l28 -30 226 0
226 0 0 -100 0 -100 -260 0 -260 0 0 -85 0 -85 420 0 420 0 0 234 c0 226 -1
234 -23 267 l-23 34 -237 3 -237 2 0 100 0 100 110 0 110 0 0 -35 0 -35 150 0
150 0 0 120 0 120 -420 0 -420 0 0 -209z"/>
<path d="M90 1797 c0 -24 50 -206 81 -294 51 -144 214 -463 237 -463 4 0 20
21 37 48 105 166 316 317 543 387 l87 28 -37 146 c-20 80 -37 149 -38 154 0 4
-205 7 -455 7 -366 0 -455 -3 -455 -13z"/>
<path d="M1234 1783 c4 -16 19 -75 34 -132 l27 -104 265 -2 c228 -1 282 -4
387 -23 371 -68 645 -176 1114 -438 355 -198 479 -248 614 -247 107 0 182 29
229 86 168 206 350 601 391 845 l7 42 -1537 0 -1537 0 6 -27z"/>
<path d="M1423 1323 c-24 -2 -43 -9 -43 -14 0 -19 109 -241 162 -328 252 -421
641 -723 1075 -835 60 -16 67 -15 143 4 266 68 546 211 788 405 l64 50 -34 8
c-181 45 -372 129 -628 276 -268 154 -544 281 -734 340 -256 79 -560 115 -793
94z"/>
<path d="M1075 1268 c-163 -45 -333 -154 -420 -270 -42 -56 -95 -147 -95 -163
0 -15 196 -206 285 -278 368 -297 757 -446 1254 -481 40 -3 71 -3 68 0 -2 3
-45 29 -93 57 -187 111 -389 287 -531 462 -134 166 -289 431 -364 620 -12 33
-25 63 -28 66 -4 4 -37 -2 -76 -13z"/>
</g>
</svg>
